<?xml version="1.0" encoding="utf-8"?>
<svg xmlns="http://www.w3.org/2000/svg" xmlns:svg="http://www.w3.org/2000/svg" version="1.1" viewBox="0 0 1400 340">
	<title>The titlepage for the Standard Ebooks edition of Just William, by Richmal Crompton</title>
	<g aria-label="JUST WILLIAM">
		<path d="M 375.08187,52.807016 H 357.49122 V 103.7076 c 0,7.76608 -3.83625,10.8538 -8.88889,10.8538 -4.49122,0 -10.01169,-5.23976 -10.01169,-5.23976 l -5.61404,14.69006 c 0,0 7.01755,7.39181 18.05848,7.39181 15.4386,0 24.04679,-8.04678 24.04679,-23.20468 z"/>
		<path d="m 449.67251,52.807016 h -17.59064 v 44.63158 c 0,12.912284 -3.92983,16.654974 -12.53802,16.654974 -8.60818,0 -12.53801,-3.74269 -12.53801,-16.654974 V 52.807016 H 389.4152 v 49.777774 c 0,19.08772 10.47953,28.81872 30.12865,28.81872 19.64913,0 30.12866,-9.731 30.12866,-28.81872 z"/>
		<path d="m 491.59502,51.403507 c -12.44444,0 -25.16959,9.169591 -25.16959,23.578948 0,8.046784 5.4269,15.251462 14.69006,19.836258 9.16959,4.584795 17.40351,7.111107 17.40351,12.725147 0,7.20468 -7.29825,7.57895 -11.1345,7.57895 -8.60819,0 -18.90059,-8.70176 -18.90059,-8.70176 l -8.79532,14.78363 c 0,0 10.94737,10.19883 29.00585,10.19883 15.06433,0 29.09941,-6.45614 29.09941,-24.88889 0,-10.105264 -9.45029,-17.40351 -18.05848,-21.052632 -8.79532,-3.742691 -16.09356,-6.83041 -16.09356,-11.134504 0,-4.210526 3.18128,-6.923976 9.16959,-6.923976 7.95321,0 15.62573,5.333333 15.62573,5.333333 l 7.11111,-14.035088 c 0,0 -9.91813,-7.298246 -23.95322,-7.298246 z"/>
		<path d="m 521.58187,68.245613 h 18.33918 V 130 H 557.5117 V 68.245613 h 18.33918 V 52.807016 h -54.26901 z"/>
		<path d="m 668.95761,130 h 19.46198 L 710.4079,52.807016 h -19.46199 l -13.19298,52.959064 h -0.46784 L 663.25,52.807016 h -13.28655 l -14.03509,52.959064 h -0.46783 L 622.26755,52.807016 H 602.71199 L 624.70029,130 h 19.55556 l 12.35088,-43.321638 z"/>
		<path d="M 737.21782,52.807016 H 719.62718 V 130 h 17.59064 z"/>
		<path d="M 771.09209,52.807016 H 753.50145 V 130 h 44.16374 v -15.4386 h -26.5731 z"/>
		<path d="M 828.90642,52.807016 H 811.31578 V 130 h 44.16374 v -15.4386 h -26.5731 z"/>
		<path d="M 886.72078,52.807016 H 869.13014 V 130 h 17.59064 z"/>
		<path d="m 942.20908,52.807016 h -16.2807 L 894.77049,130 h 18.90058 l 5.70761,-15.4386 h 29.38011 L 954.4664,130 h 18.90058 z m 0.56141,46.31579 h -17.40351 l 8.60819,-22.45614 h 0.18713 z"/>
		<path d="m 1045.0994,130 h 17.5907 l -6.924,-77.192984 h -18.7134 L 1019.9298,97.345029 1002.807,52.807016 H 984.09359 L 977.16961,130 h 17.59065 l 3.64912,-45.754387 h 0.46783 l 15.81289,45.286547 h 10.4795 l 15.8129,-45.286547 h 0.4678 z"/>
	</g>
	<g aria-label="RICHMAL CROMPTON">
		<path d="M 272.93312,232.10526 V 290 H 286.1261 V 267.12281 L 303.81031,290 h 16.77193 l -19.92982,-23.92982 c 7.08771,-2.24562 11.85964,-8.07018 11.85964,-16.77193 0,-11.36842 -8.14035,-17.19299 -18.87719,-17.19299 z m 13.19298,25.68421 v -15.15789 h 1.54386 c 4.98246,0 10.94737,0.35088 10.94737,7.57895 0,7.22807 -5.96491,7.57894 -10.94737,7.57894 z"/>
		<path d="M 341.42763,232.10526 H 328.23465 V 290 h 13.19298 z"/>
		<path d="m 383.50439,278.07018 c -13.26316,0 -19.08772,-9.26316 -19.08772,-17.05264 0,-7.71929 5.82456,-16.98245 19.08772,-16.98245 6.73684,0 11.36842,3.57895 11.36842,3.57895 l 5.61403,-11.22807 c 0,0 -6.45614,-5.33334 -19.01754,-5.33334 -16.42105,0 -31.36842,13.47369 -31.36842,30.10527 0,16.5614 15.01754,29.89473 31.36842,29.89473 12.5614,0 19.01754,-5.33333 19.01754,-5.33333 l -5.61403,-11.22807 c 0,0 -4.63158,3.57895 -11.36842,3.57895 z"/>
		<path d="m 423.79605,266.77193 h 18.66667 V 290 h 13.19298 v -57.89474 h -13.19298 v 23.08772 H 423.79605 V 232.10526 H 410.60307 V 290 h 13.19298 z"/>
		<path d="m 516.91667,290 h 13.19298 l -5.19298,-57.89474 h -14.03509 l -12.84211,33.40351 -12.8421,-33.40351 H 471.16228 L 465.9693,290 h 13.19298 l 2.73684,-34.31579 H 482.25 l 11.85965,33.96491 h 7.85965 l 11.85965,-33.96491 h 0.35088 z"/>
		<path d="M 569.79824,232.10526 H 557.58771 L 534.21929,290 h 14.17544 l 4.2807,-11.57895 h 22.03509 L 578.99122,290 h 14.17544 z m 0.42105,34.73685 H 557.16666 L 563.6228,250 h 0.14035 z"/>
		<path d="M 613.54935,232.10526 H 600.35637 V 290 h 33.1228 v -11.57895 h -19.92982 z"/>
		<path d="m 697.76974,278.07018 c -13.26316,0 -19.08772,-9.26316 -19.08772,-17.05264 0,-7.71929 5.82456,-16.98245 19.08772,-16.98245 6.73684,0 11.36842,3.57895 11.36842,3.57895 l 5.61403,-11.22807 c 0,0 -6.45614,-5.33334 -19.01754,-5.33334 -16.42105,0 -31.36842,13.47369 -31.36842,30.10527 0,16.5614 15.01754,29.89473 31.36842,29.89473 12.5614,0 19.01754,-5.33333 19.01754,-5.33333 l -5.61403,-11.22807 c 0,0 -4.63158,3.57895 -11.36842,3.57895 z"/>
		<path d="M 724.86842,232.10526 V 290 H 738.0614 V 267.12281 L 755.74561,290 h 16.77193 l -19.92982,-23.92982 c 7.08772,-2.24562 11.85965,-8.07018 11.85965,-16.77193 0,-11.36842 -8.14035,-17.19299 -18.8772,-17.19299 z m 13.19298,25.68421 v -15.15789 h 1.54386 c 4.98246,0 10.94737,0.35088 10.94737,7.57895 0,7.22807 -5.96491,7.57894 -10.94737,7.57894 z"/>
		<path d="m 777.57344,261.01754 c 0,16.91228 12.07018,30.03509 29.19299,30.03509 16.63157,0 29.1228,-13.12281 29.1228,-30.03509 0,-16.91228 -13.05263,-29.96491 -29.1228,-29.96491 -15.92983,0 -29.19299,13.05263 -29.19299,29.96491 z m 14.24562,0 c 0,-8.63157 4.77193,-17.26315 14.94737,-17.26315 10.24561,0 14.87719,8.63158 14.87719,17.26315 0,8.63158 -4.35088,17.26316 -14.87719,17.26316 -10.80702,0 -14.94737,-8.63158 -14.94737,-17.26316 z"/>
		<path d="m 894.57017,290 h 13.19298 l -5.19298,-57.89474 h -14.03509 l -12.8421,33.40351 -12.84211,-33.40351 H 848.81579 L 843.6228,290 h 13.19299 l 2.73684,-34.31579 h 0.35087 l 11.85965,33.96491 h 7.85965 l 11.85965,-33.96491 h 0.35088 z"/>
		<path d="M 918.04823,232.10526 V 290 h 13.19298 v -21.47368 h 7.92983 c 11.29824,0 19.78947,-6.66667 19.78947,-18.5965 0,-11.99999 -8.49123,-17.82456 -19.78947,-17.82456 z M 931.24121,258 v -15.36842 h 3.7193 c 5.19298,0 10.10526,1.75439 10.10526,7.7193 0,5.89473 -4.91228,7.64912 -10.10526,7.64912 z"/>
		<path d="m 962.71051,243.68421 h 13.75438 V 290 h 13.19299 v -46.31579 h 13.75442 v -11.57895 h -40.70179 z"/>
		<path d="m 1008.3739,261.01754 c 0,16.91228 12.0701,30.03509 29.1929,30.03509 16.6316,0 29.1228,-13.12281 29.1228,-30.03509 0,-16.91228 -13.0526,-29.96491 -29.1228,-29.96491 -15.9298,0 -29.1929,13.05263 -29.1929,29.96491 z m 14.2456,0 c 0,-8.63157 4.7719,-17.26315 14.9473,-17.26315 10.2457,0 14.8772,8.63158 14.8772,17.26315 0,8.63158 -4.3508,17.26316 -14.8772,17.26316 -10.807,0 -14.9473,-8.63158 -14.9473,-17.26316 z"/>
		<path d="m 1090.7039,254.07018 h 0.1404 L 1113.8618,290 h 13.193 v -57.89474 h -13.193 v 35.92983 h -0.1403 l -23.0176,-35.92983 h -13.193 V 290 h 13.193 z"/>
	</g>
</svg>
